<?xml version="1.0" encoding="utf-8"?>
<!-- Generator: Adobe Illustrator 21.0.2, SVG Export Plug-In . SVG Version: 6.00 Build 0)  -->
<svg version="1.1" id="Layer_1" xmlns="http://www.w3.org/2000/svg" xmlns:xlink="http://www.w3.org/1999/xlink" x="0px" y="0px"
	 viewBox="0 0 239 240.8" style="enable-background:new 0 0 239 240.8;" xml:space="preserve">
<style type="text/css">
	.st0{fill:#EAF6FB;}
	.st1{fill:#61BFE6;}
	.st2{fill:#B6E1F3;}
	.st3{fill:#4CB7E3;}
	.st4{fill:#5DBEE5;}
	.st5{fill:#0D9EDA;}
	.st6{fill:#F1F9FC;}
	.st7{fill:#0D9DD9;}
	.st8{fill:#4EB7E3;}
	.st9{fill:#5EBEE5;}
	.st10{fill:#65C0E7;}
	.st11{fill:#B2E0F2;}
	.st12{fill:#54BAE4;}
</style>
<title>DVT</title>
<path class="st0" d="M30,114.6c0.5-0.6,0.1-1.4,0.2-2.1c0.1-1.6,0.4-3.2,1-4.7c0.3,0.4,0.4,0.9,0.2,1.4c-0.6,3.7-0.7,7.5-0.4,11.2
	c0.1,0.5,0,1.1-0.4,1.6c-0.6-0.6-0.5-1.4-0.5-2.1s0.2-1.3-0.2-2L30,114.6z"/>
<path class="st1" d="M63.3,157.3c2.7,0.5,5.5,0.8,8.3,0.8c2.2,0,4.4-0.1,6.5-0.3c1.6-0.2,3.1-0.5,4.7-0.8c-1.6,0.6-3.3,1-5.1,1.1
	c-4.4,0.5-8.8,0.4-13.2-0.4C64.1,157.7,63.7,157.6,63.3,157.3z"/>
<path class="st2" d="M138.9,158.5l0.7-1C139.7,158.1,139.6,158.5,138.9,158.5z"/>
<path class="st3" d="M33.8,100.2c-0.2,0.6-0.2,1.3-0.7,1.7C33.1,101.2,33.4,100.6,33.8,100.2z"/>
<path class="st4" d="M34.7,98c0.1,0.4-0.1,0.8-0.5,1C34.2,98.6,34.4,98.2,34.7,98z"/>
<path class="st5" d="M37.5,163.8c1-0.2,1.9-0.2,2.9-0.2c1.6-0.1,3.1,0.4,4.3,1.4c1,1.2,1.6,2.7,1.5,4.2c0.1,1.7-0.4,3.3-1.5,4.6
	c-1.3,1.2-3,1.8-4.7,1.7c-0.8,0-1.7,0-2.5-0.1V163.8z M38.9,174.2c0.5,0.1,0.9,0.1,1.4,0.1c2.9,0,4.5-1.8,4.5-5
	c0-2.8-1.4-4.6-4.3-4.6c-0.5,0-1.1,0-1.6,0.2L38.9,174.2z"/>
<path class="st5" d="M50.3,163.6v7c0,2.6,1,3.8,2.5,3.8c1.6,0,2.6-1.1,2.6-3.8v-7h1.3v6.9c0,3.6-1.7,5.1-4,5.1s-3.8-1.4-3.8-5v-6.9
	L50.3,163.6z"/>
<path class="st5" d="M61.3,171.7l-1.1,3.7h-1.4l3.6-11.8H64l3.6,11.8h-1.4l-1.1-3.7H61.3z M64.7,170.5l-1-3.4
	c-0.2-0.8-0.4-1.5-0.6-2.1l0,0c-0.2,0.7-0.3,1.4-0.5,2.1l-1,3.4L64.7,170.5z"/>
<path class="st5" d="M70.1,175.4v-11.8h1.5l3.4,6c0.7,1.2,1.3,2.5,1.9,3.8l0,0c-0.1-1.6-0.2-3-0.2-4.8v-4.9h1.3v11.8h-1.3l-3.4-6
	c-0.7-1.3-1.4-2.6-2-3.9l0,0c0.1,1.5,0.1,2.9,0.1,4.9v5L70.1,175.4z"/>
<path class="st5" d="M86.9,169.9h-4.1v4.3h4.6v1.3h-6v-11.8h5.7v1.3h-4.3v3.7h4.1V169.9z"/>
<path class="st5" d="M96.1,175.4l-3.4-11.8h1.5l1.6,5.8c0.5,1.6,0.9,3,1.1,4.4l0,0c0.3-1.4,0.7-2.9,1.2-4.4l1.8-5.8h1.5l-3.8,11.8
	L96.1,175.4z"/>
<path class="st5" d="M104.4,171.7l-1.1,3.7h-1.4l3.6-11.8h1.6l3.6,11.8h-1.5l-1.1-3.7L104.4,171.7z M107.8,170.5l-1-3.4
	c-0.2-0.8-0.4-1.5-0.6-2.1l0,0c-0.2,0.7-0.3,1.4-0.5,2.1l-1,3.4L107.8,170.5z"/>
<path class="st5" d="M113.2,175.4v-11.8h1.5l3.4,6c0.7,1.2,1.3,2.5,1.9,3.8l0,0c-0.1-1.6-0.2-3-0.2-4.8v-4.9h1.3v11.8h-1.4l-3.4-6
	c-0.7-1.3-1.4-2.6-2-3.9l0,0c0.1,1.5,0.1,2.9,0.1,4.9v5L113.2,175.4z"/>
<path class="st5" d="M130.2,164.9h-3.2v-1.3h7.9v1.3h-3.2v10.5h-1.4L130.2,164.9z"/>
<path class="st5" d="M139.3,175.4l-2.7-11.8h1.4l1.3,6c0.3,1.5,0.6,2.9,0.8,4.1l0,0c0.2-1.2,0.5-2.6,0.9-4.1l1.4-5.9h1.4l1.3,6
	c0.3,1.4,0.6,2.8,0.7,4l0,0c0.2-1.3,0.5-2.6,0.9-4.1l1.4-5.9h1.4l-3,11.8H145l-1.3-6.1c-0.3-1.3-0.5-2.6-0.7-3.9l0,0
	c-0.2,1.2-0.4,2.3-0.8,3.9l-1.5,6.1H139.3z"/>
<path class="st5" d="M157.3,169.9h-4.1v4.3h4.6v1.3h-6v-11.8h5.7v1.3h-4.4v3.7h4.1L157.3,169.9z"/>
<path class="st5" d="M160.3,173.6c0.7,0.5,1.6,0.8,2.4,0.8c1.1,0.1,2.1-0.7,2.2-1.8c0-0.1,0-0.2,0-0.2c0-1.1-0.6-1.7-2-2.3
	c-1.7-0.7-2.8-1.7-2.8-3.3c0-1.8,1.4-3.2,3.2-3.2c0.1,0,0.2,0,0.3,0c0.8,0,1.6,0.2,2.3,0.6l-0.4,1.2c-0.6-0.4-1.3-0.6-2-0.6
	c-1-0.1-1.9,0.6-2,1.6c0,0.1,0,0.1,0,0.2c0,1.1,0.6,1.6,2.1,2.3c1.8,0.8,2.7,1.7,2.7,3.5s-1.2,3.4-3.7,3.4c-1,0-1.9-0.2-2.7-0.8
	L160.3,173.6z"/>
<path class="st5" d="M171.2,164.9H168v-1.3h7.9v1.3h-3.2v10.5h-1.4L171.2,164.9z"/>
<path class="st6" d="M108.7,49.8c0.8-0.8,2-0.7,3-1c0.4-0.1,0.8,0.1,1.1-0.3h1.7c0.4,0.6,0.5,1.3,0.5,2.1c0,22.2,0,44.4,0,66.6
	c0.1,2.8-0.3,5.5-1.1,8.2c-0.6-0.6,0-1.3-0.2-1.9c0.5-3.4,0.6-6.8,0.5-10.3c0-20.5,0-41,0-61.5c0-2.4-0.1-2.4-2.4-2.1
	C110.7,49.8,109.7,50.3,108.7,49.8z"/>
<path class="st7" d="M30.7,122c0-1.3-0.1-2.5-0.3-3.8c-0.1-3.3,0.2-6.5,0.8-9.8c0-0.2,0-0.4,0-0.6c0.5-2,1.1-4,1.9-6
	c0.4-0.5,0.4-1.2,0.7-1.7c0-0.4,0.2-0.8,0.5-1.2c0.3-0.3,0.3-0.7,0.5-1c3.3-6.7,8.3-12.3,14.6-16.3c9-5.8,19.8-8,30.3-6.2
	c1,0.5,2.1,0.3,3.1,0.7c2.6,0.6,5.2,1.5,7.7,2.6c0.4,0.2,0.6,0.6,0.5,1c0,7.9,0,15.8,0,23.7c0,0.2-0.1,0.4-0.2,0.6
	c-0.7-1.2-1.6-2.3-2.6-3.2c-4.2-4.1-9.9-6.3-15.7-6.2c-8.9,0.1-15.4,4.1-19.8,11.8c-0.5,0.9-0.9,1.8-1.1,2.8
	c-3.1,9.2,0.2,19.4,8.1,25.1c4.3,3.2,9.7,4.7,15,4.1c9-1,16.6-7.3,19.1-16c0.3-0.7,0.4-1.5,0.5-2.2c0.3-0.6,0.5-1.3,0.4-1.9
	c0-16,0-32.1,0-48.1c0-2.3,0.3-4.6,0.8-6.8c1.2-4.4,3.9-8.2,7.6-10.8c1.7-1.2,3.6-2.1,5.6-2.8c1.6-0.4,3.2-0.6,4.8-0.8
	c0.8,0,1,0.3,1,1c0,23.2,0,46.3-0.1,69.5c-0.1,1.4-0.3,2.8-0.5,4.2c-0.5,0.7-0.2,1.5-0.4,2.2l0,0c-0.5,0.7-0.3,1.7-0.7,2.4
	c-1.5,5.2-4,10.1-7.5,14.3c-5,6.2-11.6,10.9-19.2,13.5c-1.1,0.4-2.2,0.6-3.3,1c-3.2,0.9-6.5,1.3-9.8,1.2c-2.4,0.1-4.8,0-7.2-0.5
	c-0.8-0.1-1.6-0.3-2.4-0.5c-2.6-0.4-5-1.2-7.4-2.3c-10.9-4.7-19.4-13.8-23.2-25C31.8,127.4,31.2,124.7,30.7,122z"/>
<path class="st7" d="M138.9,158.5h-19.4c-0.7,0-1.3-0.3-1.5-0.9c-2.4-4.7-4.8-9.4-7.2-14.1c-0.5-0.7-0.4-1.7,0.1-2.4
	c3.4-5.1,5.6-10.8,6.7-16.8c0.2-1.1,0.2-2.2,0.5-3.3c0.3-1.2,0.4-2.5,0.4-3.7c0-0.3-0.3-0.8,0.4-0.9c3,5.7,6.1,11.4,9.1,17.1
	c0.2,0.3,0.3,0.8,0.8,0.8s0.6-0.5,0.7-0.8c4.4-10,8.9-19.9,13.3-29.9c2.9-6.6,5.9-13.3,8.8-19.9c0.2-0.8,1-1.3,1.8-1.2
	c6,0.1,12.1,0.1,18.1,0c1.1,0,1.2,0.2,0.8,1.2c-5.1,11.5-10.1,22.9-15.2,34.3c-4.8,10.9-9.6,21.8-14.5,32.7c-1,2.2-2,4.5-2.9,6.7
	C139.5,157.9,139.4,158.4,138.9,158.5z"/>
<path class="st8" d="M118.8,116.5c-0.5,0.5-0.2,1.1-0.3,1.7c-0.1,1,0.1,2-0.5,2.9c-0.1-1.6,0.4-3.1,0.2-4.6c0-0.2,0-0.5,0.2-0.5
	S118.8,116.2,118.8,116.5z"/>
<path class="st9" d="M112.8,128.3c0.2-0.8,0-1.7,0.7-2.4C113.5,126.7,113.2,127.6,112.8,128.3z"/>
<path class="st9" d="M113.5,125.9c0.1-0.7-0.3-1.6,0.4-2.2c0.1,0.6-0.4,1.1-0.2,1.7L113.5,125.9z"/>
<path class="st10" d="M95.5,63.5c-1.4,9.1-0.5,18.2-0.7,27.3s0,18.2-0.1,27.3c0,0.8,0.3,1.6-0.5,2.2c0.3-1.3,0.4-2.6,0.3-3.9
	c0-16.1,0-32.3,0-48.4C94.6,66.4,94.9,64.9,95.5,63.5z"/>
<path class="st11" d="M51.1,121.8c-0.6-1.3-0.8-2.7-0.8-4.2c-0.2-2.7,0.2-5.3,1-7.9c0.1-0.2,0.2-0.3,0.3-0.5c-0.7,2.6-1,5.3-1,8
	C50.7,118.8,50.9,120.3,51.1,121.8z"/>
<path class="st12" d="M82.8,76.2c-1.1-0.2-2.2,0.1-3.1-0.7C80.8,75.5,81.8,75.7,82.8,76.2z"/>
<g id="Rectangle_1">
	<path class="st5" d="M177.9,67.6h-53c-2.4,0-4.4,2-4.4,4.4v7.8c0,2.4,2,4.4,4.4,4.4h53c2.4,0,4.4-2,4.4-4.4v0V72
		C182.3,69.6,180.3,67.6,177.9,67.6z"/>
</g>
<path class="st5" d="M197,68.1l-55.9-0.5l-10.7,16.7c0.3,3.3-1.6,6.4-4.8,7.5c0,0-2.1,2.2,3.6,2.3c4.8-1.4,8.8-4.8,10.9-9.3
	l47.9-0.5c0,0,23.3,0.8,34.3-11.3c0,0,3.3-2.1-1.8-2.8C212.7,68.9,204.9,68.2,197,68.1z"/>
<path class="st5" d="M178,67.6l25.7,0.7l-17.9,9.2c-3.3,0-6.7-0.3-9.9-1.1c-2.7-0.6-5.3-1.3-7.9-2.2L178,67.6z"/>
</svg>
