<?xml version="1.0" encoding="utf-8"?>
<!-- Generator: Adobe Illustrator 21.0.2, SVG Export Plug-In . SVG Version: 6.00 Build 0)  -->
<svg version="1.1" id="Шар_1" xmlns="http://www.w3.org/2000/svg" xmlns:xlink="http://www.w3.org/1999/xlink" x="0px" y="0px"
	 width="163.9px" height="163.9px" viewBox="0 0 163.9 163.9" style="enable-background:new 0 0 163.9 163.9;" xml:space="preserve"
	>
<title>PW</title>
<g>
	<path style="fill:#FFFFFF;" d="M82,0C37-0.3,0.3,36,0,81.1c0,0.3,0,0.5,0,0.8c0,45.6,36.4,81.7,81.9,82
		c45.5-0.3,81.9-36.3,81.9-81.8c0.3-45-36-81.8-81-82C82.6,0,82.3,0,82,0z M81.8,159.6c-42.9-0.1-77.7-34.9-77.6-77.8
		S39.1,4.2,82,4.2c42.9,0.1,77.6,34.9,77.6,77.8C159.6,124.9,124.7,159.7,81.8,159.6C81.8,159.6,81.8,159.6,81.8,159.6L81.8,159.6z"
		/>
	<path style="fill:#FFFFFF;" d="M36.3,47l10.2,17.3C55.8,80,65,95.6,74.2,111.2c0.2,0.2,0.2,0.6,0,0.8c-1.1,1.6-2.2,3.1-3.3,4.8
		L31.1,47.3l2.7-0.1c0.5,0,0.9-0.1,1.3-0.1H36.3z"/>
	<path style="fill:#FFFFFF;" d="M132.7,47.9c-0.1,0.2-0.3,0.4-0.4,0.7l-28,48.7l-0.3,0.6c-0.1-0.2-0.2-0.3-0.2-0.4
		c-0.9-1.6-1.8-3.2-2.8-4.8c-0.2-0.2-0.2-0.5,0-0.7c8.7-14.6,17.4-29.1,26.1-43.7c0.1-0.3,0.4-0.4,0.7-0.4c1.6,0,3.3,0,5,0
		L132.7,47.9z"/>
	<path style="fill:#FFFFFF;" d="M111.2,47.5L92.9,78.4c-0.1-0.1-0.1-0.1-0.2-0.2c-0.9-1.5-1.8-3-2.7-4.4c-0.2-0.3,0-0.5,0.1-0.7
		l11.2-19.8l0.3-0.6H61.1l2.1,3.6l0.1-0.1l-1.2-2.6h0.1l0.3,0.5C73.5,73,84.6,92,95.7,110.9c0.3,0.4,0.3,1,0,1.4
		c-1,1.4-1.9,2.9-2.8,4.4L53,47.5L111.2,47.5z"/>
	<polygon style="fill:#FFFFFF;" points="95.5,110.6 60.8,50.9 58.5,52.2 93.8,110.6 	"/>
	<path style="fill:#FFFFFF;" d="M36.9,128.6c-0.3,0.3-0.7,0.5-1.2,0.5h-1.1v3.4h-0.3v-6.7h1.5c0.4,0,0.8,0.2,1.2,0.4
		C37.5,126.9,37.5,127.9,36.9,128.6z M36.6,126.4c-0.3-0.2-0.6-0.3-0.9-0.3h-1.1v2.6h1.1c0.3,0,0.7-0.1,0.9-0.3
		c0.3-0.3,0.4-0.6,0.4-1C37,127,36.8,126.7,36.6,126.4L36.6,126.4z"/>
	<path style="fill:#FFFFFF;" d="M41.4,132.4v-6.7h2.9v0.4h-2.5v2.4h2.5v0.4h-2.5v3.1h2.5v0.4L41.4,132.4z"/>
	<path style="fill:#FFFFFF;" d="M49.6,126.1v6.3h-0.4v-6.3h-1.3v-0.4h3v0.4H49.6z"/>
	<path style="fill:#FFFFFF;" d="M54.6,132.4v-6.7h2.9v0.4H55v2.4h2.5v0.4H55v3.1h2.5v0.4L54.6,132.4z"/>
	<path style="fill:#FFFFFF;" d="M64.4,132.4l-1.9-3.4h-0.6v3.4h-0.3v-6.7h1.4c0.2,0,0.4,0,0.6,0.1c0.2,0.1,0.4,0.2,0.5,0.3
		c0.2,0.1,0.3,0.3,0.4,0.5c0.1,0.2,0.1,0.5,0.1,0.7c0,0.3,0,0.5-0.1,0.8c-0.1,0.2-0.2,0.4-0.4,0.5c-0.2,0.1-0.3,0.2-0.5,0.3
		c-0.2,0.1-0.4,0.1-0.7,0.1l1.9,3.4L64.4,132.4z M64.1,126.8c-0.1-0.1-0.2-0.3-0.3-0.4c-0.1-0.1-0.3-0.2-0.4-0.2
		c-0.2-0.1-0.3-0.1-0.5-0.1h-1v2.6H63c0.3,0,0.6-0.1,0.9-0.3c0.2-0.3,0.4-0.6,0.3-1C64.2,127.2,64.1,127,64.1,126.8L64.1,126.8z"/>
	<path style="fill:#FFFFFF;" d="M78.7,132.5l-1.5-5.6l-1.5,5.6l-1.9-6.8h0.3l1.6,5.5l1.5-5.6l1.5,5.6l1.6-5.5h0.4L78.7,132.5z"/>
	<path style="fill:#FFFFFF;" d="M84.7,132.4v-6.7h0.3v6.7H84.7z"/>
	<path style="fill:#FFFFFF;" d="M89,132.4v-6.7h0.3v6.3H91v0.4L89,132.4z"/>
	<path style="fill:#FFFFFF;" d="M95.1,132.4v-6.7h0.3v6.3h1.7v0.4L95.1,132.4z"/>
	<path style="fill:#FFFFFF;" d="M105,132.4l-0.7-2h-2.7l-0.7,2h-0.3l2.4-6.9l2.4,6.9H105z M102.9,126.5l-1.2,3.5h2.5L102.9,126.5z"
		/>
	<path style="fill:#FFFFFF;" d="M109.8,126.1v6.3h-0.4v-6.3h-1.3v-0.4h3v0.4H109.8z"/>
	<path style="fill:#FFFFFF;" d="M119.4,131.6c-1.2,1.2-3.1,1.3-4.3,0.1c0,0-0.1-0.1-0.1-0.1c-1.2-1.5-1.2-3.5,0-5
		c0.6-0.7,1.4-1,2.2-1c0.9,0,1.7,0.4,2.2,1C120.5,128,120.5,130.1,119.4,131.6L119.4,131.6z M119.1,126.9c-1-1.1-2.7-1.2-3.8-0.2
		c-0.1,0.1-0.1,0.1-0.2,0.2c-1,1.3-1,3.1,0,4.4c0.5,0.6,1.2,0.9,2,0.9c0.8,0,1.5-0.3,2-0.8C120.1,130.1,120.1,128.2,119.1,126.9z"/>
	<path style="fill:#FFFFFF;" d="M124.7,126.8v5.7h-0.3v-6.7l4.5,5.9v-5.8h0.4v6.8L124.7,126.8z"/>
</g>
</svg>
